<svg id="Fill_Outline" height="512" viewBox="0 0 64 64" width="512" xmlns="http://www.w3.org/2000/svg" data-name="Fill Outline"><circle cx="29" cy="29" fill="#aae1f9" r="26"/><path d="m36 42a26 26 0 0 1 -26-26 26.49 26.49 0 0 1 .54-5.31 26 26 0 1 0 43.92 23.62 25.93 25.93 0 0 1 -18.46 7.69z" fill="#57b7eb"/><path d="m41.11 6-9.11 7 6 6-9 3-2 7 8 3-8 12 21.1 2.64a26 26 0 0 0 -6.99-40.64z" fill="#a1d51c"/><path d="m18 37v-8l-6-7 6-4-2-6-4.49-2.24a26 26 0 0 0 2 40.13l-.51-8.89z" fill="#a1d51c"/><path d="m20 47-.52 6.19a25.78 25.78 0 0 0 7.52 1.73v-3.92z" fill="#7ab92d"/><path d="m35.14 3.74a26 26 0 0 0 -14.51.64l3.37 5.62z" fill="#a1d51c"/><path d="m36 42a25.82 25.82 0 0 1 -7-1l-2 3 21.1 2.64a26.06 26.06 0 0 0 6.35-12.32 25.94 25.94 0 0 1 -18.45 7.68z" fill="#7ab92d"/><path d="m10 16a25.78 25.78 0 0 1 .55-5.31 26 26 0 0 0 3 39.2l-.55-8.89 5-4v-2.25a25.9 25.9 0 0 1 -8-18.75z" fill="#7ab92d"/><path d="m57 43v-30a6 6 0 0 0 -12 0v30a10 10 0 1 0 12 0z" fill="#f9e109"/><path d="m49.08 43h-.08v-35.65a6 6 0 0 0 -4 5.65v30a10 10 0 1 0 14.55 13.17 15.49 15.49 0 0 1 -10.47-13.17z" fill="#fcbc04"/><path d="m51 57a6 6 0 0 1 -3.59-10.79l1.59-1.21v-32a2 2 0 0 1 4 0v32l1.59 1.2a6 6 0 0 1 -3.59 10.8z" fill="#f89c8d"/><path d="m54.59 46.21-1.59-1.21v-28h-4v28l-1.59 1.2a6 6 0 1 0 7.18 0z" fill="#f8664f"/><path d="m49.08 43h-.08v2l-1.59 1.2a6 6 0 1 0 8.53 8.19 15.46 15.46 0 0 1 -6.86-11.39z" fill="#cc5144"/><g fill="#2d72bc"><path d="m38.3 44.4-9.57-1.19 7.1-10.66a1 1 0 0 0 .12-.86 1 1 0 0 0 -.6-.63l-7.14-2.67 1.61-5.61 8.5-2.78a1 1 0 0 0 .39-1.66l-5.2-5.19 7.68-5.91c.42.24.83.47 1.23.73a1 1 0 0 0 1.38-.3 1 1 0 0 0 -.3-1.39 27 27 0 1 0 -14.5 49.72 26.74 26.74 0 0 0 8.58-1.41 1 1 0 1 0 -.64-1.89 25 25 0 0 1 -7.94 1.3c-.34 0-.67 0-1 0v-3a1 1 0 0 0 -.5-.87l-7-4a1 1 0 0 0 -1 0 1 1 0 0 0 -.53.81l-.4 4.81a25 25 0 0 1 -6.86-40.75l3.47 1.74 1.63 4.88-5.36 3.58a1 1 0 0 0 -.44.69 1 1 0 0 0 .23.79l5.76 6.69v7.15l-4.62 3.7a1 1 0 0 0 -.37.91l.52 3.87a1 1 0 0 0 1 .87h.14a1 1 0 0 0 .85-1.12l-.44-3.33 4.56-3.65a1 1 0 0 0 .36-.77v-8a1 1 0 0 0 -.24-.65l-5.27-6.14 5.06-3.38a1 1 0 0 0 .4-1.15l-2-6a1 1 0 0 0 -.5-.57l-3.12-1.57a25.16 25.16 0 0 1 6.87-3.94l2.94 4.91a1 1 0 0 0 .86.49 1 1 0 0 0 .49-.13l10.77-6.06a25 25 0 0 1 4 1.38l-7.82 6a1 1 0 0 0 -.39.73 1 1 0 0 0 .29.77l4.86 4.85-7.47 2.49a1 1 0 0 0 -.64.68l-2 7a1 1 0 0 0 .61 1.21l6.82 2.55-7.3 11a1 1 0 0 0 .66 1.53l11.17 1.4h.13a1 1 0 0 0 .12-2zm-17.43 4.25 5.13 2.93v2.23a24.28 24.28 0 0 1 -5.46-1.29zm3.49-40-2.22-3.65a24.66 24.66 0 0 1 10.1-.74z"/><path d="m46.8 45.41a7 7 0 1 0 8.4 0l-1.2-.9v-31.51a3 3 0 0 0 -6 0v3a1 1 0 0 0 0 2v2a1 1 0 0 0 0 2v3a1 1 0 0 0 0 2h2a1 1 0 0 0 0-2v-3a1 1 0 0 0 0-2v-2h2v27a1 1 0 0 0 .4.8l1.6 1.2a5 5 0 0 1 2 4 5 5 0 0 1 -10 0 5 5 0 0 1 2-4l1.59-1.2a.94.94 0 0 0 .41-.8v-3a1 1 0 0 0 0-2h-2a1 1 0 0 0 0 2v2.51zm3.2-29.41v-3a1 1 0 0 1 2 0v3z"/><path d="m48 32h2a1 1 0 0 0 0-2h-2a1 1 0 0 0 0 2z"/><path d="m48 37h2a1 1 0 0 0 0-2h-2a1 1 0 0 0 0 2z"/><path d="m58 42.53v-6.53a1 1 0 0 0 -2 0v7a1 1 0 0 0 .4.8 9 9 0 1 1 -10.8 0 1 1 0 0 0 .4-.8v-30a5 5 0 0 1 10 0v19a1 1 0 0 0 2 0v-19a7 7 0 0 0 -14 0v29.53a10.89 10.89 0 0 0 -4 8.47 11 11 0 0 0 22 0 10.89 10.89 0 0 0 -4-8.47z"/></g></svg>